<svg xmlns="http://www.w3.org/2000/svg" width="26" height="26" viewBox="0 0 26 26">
  <g id="그룹_226" data-name="그룹 226" transform="translate(-634 -17)">
    <circle id="타원_10" data-name="타원 10" cx="13" cy="13" r="13" transform="translate(634 17)"/>
    <path id="plus-solid" d="M13.677,5.787H8.943V1.052A1.052,1.052,0,0,0,7.891,0H6.839A1.052,1.052,0,0,0,5.787,1.052V5.787H1.052A1.052,1.052,0,0,0,0,6.839V7.891A1.052,1.052,0,0,0,1.052,8.943H5.787v4.734a1.052,1.052,0,0,0,1.052,1.052H7.891a1.052,1.052,0,0,0,1.052-1.052V8.943h4.734a1.052,1.052,0,0,0,1.052-1.052V6.839A1.052,1.052,0,0,0,13.677,5.787Z" transform="translate(647 19.949) rotate(45)" fill="#fff"/>
  </g>
</svg>
