<svg xmlns="http://www.w3.org/2000/svg" width="26" height="26" viewBox="0 0 26 26">
  <g id="그룹_225" data-name="그룹 225" transform="translate(-208 -5)">
    <circle id="타원_9" data-name="타원 9" cx="13" cy="13" r="13" transform="translate(208 5)"/>
    <path id="plus-solid" d="M13.677,37.787H8.943V33.052A1.052,1.052,0,0,0,7.891,32H6.839a1.052,1.052,0,0,0-1.052,1.052v4.734H1.052A1.052,1.052,0,0,0,0,38.839v1.052a1.052,1.052,0,0,0,1.052,1.052H5.787v4.734a1.052,1.052,0,0,0,1.052,1.052H7.891a1.052,1.052,0,0,0,1.052-1.052V40.943h4.734a1.052,1.052,0,0,0,1.052-1.052V38.839A1.052,1.052,0,0,0,13.677,37.787Z" transform="translate(214 -21)" fill="#fff"/>
  </g>
</svg>
