<svg xmlns="http://www.w3.org/2000/svg" xmlns:xlink="http://www.w3.org/1999/xlink" width="20.92" height="21" viewBox="0 0 20.92 21">
  <defs>
    <clipPath id="clip-path">
      <rect id="사각형_133" data-name="사각형 133" width="18" height="21"/>
    </clipPath>
  </defs>
  <g id="그룹_93" data-name="그룹 93" transform="translate(-1329)">
    <g id="그룹_92" data-name="그룹 92" transform="translate(1329 0.192)">
      <path id="star-solid" d="M29.837.684,27.284,5.861l-5.713.833a1.252,1.252,0,0,0-.692,2.135l4.133,4.028-.978,5.689a1.251,1.251,0,0,0,1.814,1.318l5.111-2.686,5.111,2.686a1.252,1.252,0,0,0,1.814-1.318l-.978-5.689L41.04,8.829a1.252,1.252,0,0,0-.692-2.135l-5.713-.833L32.082.684A1.252,1.252,0,0,0,29.837.684Z" transform="translate(-20.5 0.013)" fill="#acacac"/>
    </g>
    <g id="마스크_그룹_16" data-name="마스크 그룹 16" transform="translate(1329)" clip-path="url(#clip-path)">
      <path id="star-solid-2" data-name="star-solid" d="M29.837.684,27.284,5.861l-5.713.833a1.252,1.252,0,0,0-.692,2.135l4.133,4.028-.978,5.689a1.251,1.251,0,0,0,1.814,1.318l5.111-2.686,5.111,2.686a1.252,1.252,0,0,0,1.814-1.318l-.978-5.689L41.04,8.829a1.252,1.252,0,0,0-.692-2.135l-5.713-.833L32.082.684A1.252,1.252,0,0,0,29.837.684Z" transform="translate(-20.5 0.205)"/>
    </g>
  </g>
</svg>
